Coordinates
version=1
nRows=8
nColumns=40
inDegrees=yes

Units are S.I. units (second, meters, Newtons, ...)
If the header above contains a line with 'inDegrees', this indicates whether rotational values are in degrees (yes) or radians (no).

endheader
time	pelvis_tilt	pelvis_list	pelvis_rotation	pelvis_tx	pelvis_ty	pelvis_tz	hip_flexion_r	hip_adduction_r	hip_rotation_r	knee_angle_r	knee_angle_r_beta	ankle_angle_r	subtalar_angle_r	mtp_angle_r	hip_flexion_l	hip_adduction_l	hip_rotation_l	knee_angle_l	knee_angle_l_beta	ankle_angle_l	subtalar_angle_l	mtp_angle_l	lumbar_extension	lumbar_bending	lumbar_rotation	arm_flex_r	arm_add_r	arm_rot_r	elbow_flex_r	pro_sup_r	wrist_flex_r	wrist_dev_r	arm_flex_l	arm_add_l	arm_rot_l	elbow_flex_l	pro_sup_l	wrist_flex_l	wrist_dev_l
      3.32500000	    -13.08380816	     -2.50980318	      0.54708531	     -0.32333935	      0.92905498	     -1.15436611	      6.05493851	     -2.35110604	      8.31970088	     73.95099210	      1.29068830	    -11.27370187	      0.00000000	      0.00000000	     46.38919083	      1.27369686	     -0.27073306	     59.68349086	      1.04167342	     15.58354850	      0.00000000	      0.00000000	    -14.55666627	     -3.45050142	      4.99228971	     89.91882454	     -1.38522069	     21.79838428	     39.49590996	     83.98849847	      0.00000000	      0.00000000	     89.94771065	     -6.41499001	     28.07241802	     44.41443633	     85.09854824	      0.00000000	      0.00000000
      3.33000000	    -13.21890869	     -2.44398796	      0.44382139	     -0.32362579	      0.92781099	     -1.15427585	      6.18289821	     -2.41472175	      8.48660204	     73.99265441	      1.29141544	    -11.16436867	      0.00000000	      0.00000000	     46.67467545	      1.35015604	     -0.19862777	     59.93514631	      1.04606564	     15.62617430	      0.00000000	      0.00000000	    -14.49431225	     -3.50899743	      5.08216666	     89.91981795	     -1.37459812	     21.70109948	     39.60142098	     83.98990629	      0.00000000	      0.00000000	     89.94806423	     -6.41216550	     28.01811197	     44.41409191	     85.09592347	      0.00000000	      0.00000000
      3.33500000	    -13.29759528	     -2.43992953	      0.40109925	     -0.32378016	      0.92668742	     -1.15424768	      6.22429354	     -2.43695238	      8.56371045	     74.00527993	      1.29163580	    -11.20477597	      0.00000000	      0.00000000	     46.90512600	      1.39079366	     -0.11965377	     60.21206879	      1.05089885	     15.79391465	      0.00000000	      0.00000000	    -14.47345832	     -3.51898303	      5.15752042	     89.92059853	     -1.38279739	     21.54827289	     39.65402995	     83.98667385	      0.00000000	      0.00000000	     89.94829677	     -6.33944864	     27.97201514	     44.40559428	     85.22814588	      0.00000000	      0.00000000
      3.34000000	    -13.39420751	     -2.39971751	      0.32557693	     -0.32400610	      0.92552705	     -1.15416126	      6.31021428	     -2.47691887	      8.69744247	     74.05036647	      1.29242271	    -11.20342751	      0.00000000	      0.00000000	     47.14270134	      1.42317443	     -0.10648224	     60.46554071	      1.05532277	     15.88275777	      0.00000000	      0.00000000	    -14.46008088	     -3.54476623	      5.17138613	     89.92132672	     -1.31659630	     21.51216642	     39.74566658	     83.82219814	      0.00000000	      0.00000000	     89.94848640	     -6.38350932	     27.85550262	     44.46307469	     85.01299099	      0.00000000	      0.00000000
      3.34500000	    -13.45587180	     -2.34264510	      0.28780656	     -0.32427436	      0.92438451	     -1.15415574	      6.31752382	     -2.54618572	      8.80242893	     74.04148923	      1.29226777	    -11.25458773	      0.00000000	      0.00000000	     47.35210901	      1.50449132	     -0.06949471	     60.71656012	      1.05970388	     15.98513341	      0.00000000	      0.00000000	    -14.47162964	     -3.60171183	      5.23599319	     89.92165649	     -1.33248448	     21.34917810	     39.85205192	     83.75950988	      0.00000000	      0.00000000	     89.94879872	     -6.33725966	     27.83760119	     44.45648688	     85.12883996	      0.00000000	      0.00000000
      3.35000000	    -13.60880602	     -2.25277093	      0.18277891	     -0.32459420	      0.92300642	     -1.15405576	      6.48490019	     -2.65602019	      8.95437092	     74.13349361	      1.29387355	    -11.22456534	      0.00000000	      0.00000000	     47.67671512	      1.55421170	     -0.11110328	     61.00864640	      1.06480175	     16.11918212	      0.00000000	      0.00000000	    -14.38299483	     -3.70366878	      5.31434712	     89.92276690	     -1.32430743	     21.26343164	     39.92994523	     83.95355375	      0.00000000	      0.00000000	     89.94911028	     -6.31721187	     27.73598483	     44.45855609	     85.16612345	      0.00000000	      0.00000000
      3.35500000	    -13.64199360	     -2.26851923	      0.10660640	     -0.32478079	      0.92200025	     -1.15386460	      6.46671145	     -2.59657286	      9.11995672	     74.12486877	      1.29372302	    -11.21181624	      0.00000000	      0.00000000	     47.82915676	      1.50952424	     -0.10614263	     61.23754495	      1.06879679	     16.24775453	      0.00000000	      0.00000000	    -14.44272335	     -3.69580508	      5.36567664	     89.92396703	     -1.30286442	     21.20794944	     40.03524502	     83.89581312	      0.00000000	      0.00000000	     89.94921591	     -6.30974513	     27.60386659	     44.53827213	     85.12287126	      0.00000000	      0.00000000
      3.36000000	    -13.80546508	     -2.10559707	     -0.07427712	     -0.32526206	      0.92070723	     -1.15362684	      6.69022777	     -2.77712050	      9.32447831	     74.22973459	      1.29555327	    -11.31735261	      0.00000000	      0.00000000	     48.13172786	      1.53535111	     -0.27691228	     61.46704330	      1.07280229	     16.41564611	      0.00000000	      0.00000000	    -14.35968091	     -3.89942650	      5.49342780	     89.92469683	     -1.22603869	     20.91706581	     40.11796503	     84.06799939	      0.00000000	      0.00000000	     89.94968970	     -6.29291612	     27.51892904	     44.55747793	     85.10330735	      0.00000000	      0.00000000
